<?xml version="1.0" encoding="utf-8"?>
<!-- Generator: Adobe Illustrator 22.0.1, SVG Export Plug-In . SVG Version: 6.00 Build 0)  -->
<svg version="1.1" id="Layer_1" xmlns="http://www.w3.org/2000/svg" xmlns:xlink="http://www.w3.org/1999/xlink" x="0px" y="0px"
	 viewBox="0 0 1919 437.5" style="enable-background:new 0 0 1919 437.5;" xml:space="preserve">
<style type="text/css">
	.st0{fill:#FF9F1A;}
	.st1{fill:#1C1309;}
</style>
<path class="st0" d="M1760.4,793.1c-64.3,12.9-130.2,25.6-195.8,37.9c-82.2,15.3-164.2,30-243.9,43.5
	c-202.6,34.4-390.7,61.9-559,81.5c-48.7,5.7-96.3,10.8-141.5,15.2c-47.6,4.6-94,8.5-137.8,11.7c-45.9,3.3-90.2,5.8-131.8,7.5
	c-43.4,1.8-85,2.7-123.6,2.7c-36.8,0-71.8-0.8-104.1-2.4c-33.4-1.7-64.9-4.2-93.5-7.6c-29.6-3.5-57-8-81.3-13.3
	c-12.5-2.7-24.4-5.8-35.5-9c-11.3-3.3-22-6.8-31.9-10.6c-8.3-3.2-16.6-6.2-24.7-9v-148H1760.4z"/>
<rect x="-309" y="-662" class="st1" width="1919" height="200"/>
</svg>
