<svg xmlns="http://www.w3.org/2000/svg" width="1919" height="437.521" viewBox="0 0 1919 437.521"><path d="M1547.981,0c-38.58,0-80.153.9-123.563,2.664-41.582,1.693-85.921,4.225-131.788,7.527-43.813,3.154-90.169,7.089-137.781,11.7-45.237,4.376-92.857,9.48-141.535,15.17-168.286,19.669-356.362,47.1-559,81.526-79.7,13.542-161.771,28.192-243.927,43.543C144.565,174.423,78.5,187.2,14.012,200.11,9.585,201,5.263,201.862,0,202.921v234.6H1919V51.978c-8.051-2.776-16.35-5.8-24.668-8.982-9.857-3.773-20.577-7.348-31.862-10.624-11.115-3.226-23.078-6.251-35.554-8.99-24.352-5.349-51.716-9.839-81.333-13.347-28.633-3.392-60.107-5.955-93.547-7.617C1619.777.814,1584.768,0,1547.981,0Z" transform="translate(1919 437.521) rotate(180)" fill="#ff9f1a"/></svg>