<svg xmlns="http://www.w3.org/2000/svg" width="1919.999" height="368.405" viewBox="0 0 1919.999 368.405"><path d="M2678,368.405H758V155.119c86.135-16.794,174.813-32.828,263.569-47.659,115.5-19.3,230.078-36.364,340.556-50.72,63.864-8.3,127.237-15.8,188.358-22.3,66.4-7.058,131.89-13.118,194.656-18.012,67.566-5.266,133.724-9.318,196.636-12.041C2009.017,1.477,2074.389,0,2136.077,0c54.564,0,107.607,1.155,157.654,3.433C2346.172,5.818,2396.8,9.5,2444.2,14.384c24.478,2.521,48.618,5.416,71.752,8.6,23.621,3.256,46.839,6.909,69.006,10.855,22.639,4.03,44.828,8.481,65.95,13.229,9.105,2.047,18.22,4.2,27.092,6.389V368.4Z" transform="translate(-758.001)" fill="#ff9f1a"/></svg>