<svg xmlns="http://www.w3.org/2000/svg" width="1920.5" height="281.092" viewBox="0 0 1920.5 281.092"><path d="M2565.5,281.092H645V0c5.457,1.1,9.933,2,14.513,2.912,64.444,12.9,130.513,25.678,196.372,37.984,82.139,15.348,164.207,30,243.927,43.543,202.641,34.427,390.716,61.856,559,81.526,48.638,5.685,96.257,10.79,141.535,15.17,47.628,4.609,93.984,8.544,137.781,11.7,45.848,3.3,90.188,5.833,131.788,7.527,43.4,1.768,84.977,2.664,123.563,2.664,36.783,0,71.792-.814,104.054-2.419,33.449-1.663,64.922-4.225,93.547-7.617,29.613-3.507,56.977-8,81.333-13.347,12.476-2.739,24.438-5.763,35.554-8.99,11.291-3.278,22.011-6.852,31.862-10.624,8.658-3.315,17.294-6.452,25.667-9.326V281.092Z" transform="translate(-645 0)" fill="#fff"/></svg>